<mxfile host="Electron" agent="Mozilla/5.0 (Macintosh; Intel Mac OS X 10_15_7) AppleWebKit/537.36 (KHTML, like Gecko) draw.io/24.7.17 Chrome/128.0.6613.36 Electron/32.0.1 Safari/537.36" version="24.7.17">
  <diagram name="Page-1" id="U7t47lqXsrcZqBkQWg_L">
    <mxGraphModel dx="1026" dy="1765" grid="1" gridSize="10" guides="1" tooltips="1" connect="1" arrows="1" fold="1" page="1" pageScale="1" pageWidth="850" pageHeight="1100" math="0" shadow="0">
      <root>
        <mxCell id="0" />
        <mxCell id="1" parent="0" />
        <mxCell id="Hy_VaKmW5_GkMQz66k2Z-8" value="User Carbon Emission" style="swimlane;fontStyle=1;align=center;verticalAlign=top;childLayout=stackLayout;horizontal=1;startSize=26;horizontalStack=0;resizeParent=1;resizeParentMax=0;resizeLast=0;collapsible=1;marginBottom=0;whiteSpace=wrap;html=1;" parent="1" vertex="1">
          <mxGeometry x="315" y="-430" width="200" height="154" as="geometry" />
        </mxCell>
        <mxCell id="Hy_VaKmW5_GkMQz66k2Z-9" value="&lt;div&gt;+ id: UUID&lt;/div&gt;&lt;div&gt;+ user_id: User&lt;/div&gt;&lt;div&gt;+ energy_usage: float&lt;/div&gt;&lt;div&gt;+ waste_created: float&lt;/div&gt;&lt;div&gt;+ business_travel: float&lt;/div&gt;&lt;div&gt;+ created_at: date&lt;br&gt;&lt;/div&gt;" style="text;strokeColor=none;fillColor=none;align=left;verticalAlign=top;spacingLeft=4;spacingRight=4;overflow=hidden;rotatable=0;points=[[0,0.5],[1,0.5]];portConstraint=eastwest;whiteSpace=wrap;html=1;" parent="Hy_VaKmW5_GkMQz66k2Z-8" vertex="1">
          <mxGeometry y="26" width="200" height="94" as="geometry" />
        </mxCell>
        <mxCell id="Hy_VaKmW5_GkMQz66k2Z-10" value="" style="line;strokeWidth=1;fillColor=none;align=left;verticalAlign=middle;spacingTop=-1;spacingLeft=3;spacingRight=3;rotatable=0;labelPosition=right;points=[];portConstraint=eastwest;strokeColor=inherit;" parent="Hy_VaKmW5_GkMQz66k2Z-8" vertex="1">
          <mxGeometry y="120" width="200" height="8" as="geometry" />
        </mxCell>
        <mxCell id="Hy_VaKmW5_GkMQz66k2Z-11" value="+ generate_report(usage): chart" style="text;strokeColor=none;fillColor=none;align=left;verticalAlign=top;spacingLeft=4;spacingRight=4;overflow=hidden;rotatable=0;points=[[0,0.5],[1,0.5]];portConstraint=eastwest;whiteSpace=wrap;html=1;" parent="Hy_VaKmW5_GkMQz66k2Z-8" vertex="1">
          <mxGeometry y="128" width="200" height="26" as="geometry" />
        </mxCell>
        <mxCell id="Hy_VaKmW5_GkMQz66k2Z-27" value="&lt;div&gt;UML Diagram&lt;/div&gt;" style="text;strokeColor=none;fillColor=none;html=1;fontSize=24;fontStyle=1;verticalAlign=middle;align=center;" parent="1" vertex="1">
          <mxGeometry x="353" y="-520" width="100" height="40" as="geometry" />
        </mxCell>
        <mxCell id="Hy_VaKmW5_GkMQz66k2Z-54" value="User" style="swimlane;fontStyle=0;childLayout=stackLayout;horizontal=1;startSize=26;fillColor=none;horizontalStack=0;resizeParent=1;resizeParentMax=0;resizeLast=0;collapsible=1;marginBottom=0;whiteSpace=wrap;html=1;" parent="1" vertex="1">
          <mxGeometry x="80" y="-430" width="140" height="134" as="geometry" />
        </mxCell>
        <mxCell id="Hy_VaKmW5_GkMQz66k2Z-55" value="+ id: UUID" style="text;strokeColor=none;fillColor=none;align=left;verticalAlign=top;spacingLeft=4;spacingRight=4;overflow=hidden;rotatable=0;points=[[0,0.5],[1,0.5]];portConstraint=eastwest;whiteSpace=wrap;html=1;" parent="Hy_VaKmW5_GkMQz66k2Z-54" vertex="1">
          <mxGeometry y="26" width="140" height="26" as="geometry" />
        </mxCell>
        <mxCell id="Hy_VaKmW5_GkMQz66k2Z-56" value="+ username: string" style="text;strokeColor=none;fillColor=none;align=left;verticalAlign=top;spacingLeft=4;spacingRight=4;overflow=hidden;rotatable=0;points=[[0,0.5],[1,0.5]];portConstraint=eastwest;whiteSpace=wrap;html=1;" parent="Hy_VaKmW5_GkMQz66k2Z-54" vertex="1">
          <mxGeometry y="52" width="140" height="26" as="geometry" />
        </mxCell>
        <mxCell id="Hy_VaKmW5_GkMQz66k2Z-57" value="+ password: string" style="text;strokeColor=none;fillColor=none;align=left;verticalAlign=top;spacingLeft=4;spacingRight=4;overflow=hidden;rotatable=0;points=[[0,0.5],[1,0.5]];portConstraint=eastwest;whiteSpace=wrap;html=1;" parent="Hy_VaKmW5_GkMQz66k2Z-54" vertex="1">
          <mxGeometry y="78" width="140" height="30" as="geometry" />
        </mxCell>
        <mxCell id="Hy_VaKmW5_GkMQz66k2Z-58" value="+ is_admin: bool" style="text;strokeColor=none;fillColor=none;align=left;verticalAlign=top;spacingLeft=4;spacingRight=4;overflow=hidden;rotatable=0;points=[[0,0.5],[1,0.5]];portConstraint=eastwest;whiteSpace=wrap;html=1;" parent="Hy_VaKmW5_GkMQz66k2Z-54" vertex="1">
          <mxGeometry y="108" width="140" height="26" as="geometry" />
        </mxCell>
        <mxCell id="Hy_VaKmW5_GkMQz66k2Z-60" style="edgeStyle=orthogonalEdgeStyle;rounded=0;orthogonalLoop=1;jettySize=auto;html=1;entryX=1;entryY=0.5;entryDx=0;entryDy=0;exitX=0.005;exitY=0.319;exitDx=0;exitDy=0;exitPerimeter=0;" parent="1" source="Hy_VaKmW5_GkMQz66k2Z-9" target="Hy_VaKmW5_GkMQz66k2Z-55" edge="1">
          <mxGeometry relative="1" as="geometry" />
        </mxCell>
        <mxCell id="QEWqBoXuelxvLnv4VFpo-17" style="edgeStyle=orthogonalEdgeStyle;rounded=0;orthogonalLoop=1;jettySize=auto;html=1;" edge="1" parent="1" source="QEWqBoXuelxvLnv4VFpo-18" target="QEWqBoXuelxvLnv4VFpo-24">
          <mxGeometry relative="1" as="geometry" />
        </mxCell>
        <mxCell id="QEWqBoXuelxvLnv4VFpo-18" value="SQLite3.db" style="shape=cylinder;whiteSpace=wrap;html=1;boundedLbl=1;backgroundOutline=1;" vertex="1" parent="1">
          <mxGeometry x="367.5" y="-960" width="75" height="90" as="geometry" />
        </mxCell>
        <mxCell id="QEWqBoXuelxvLnv4VFpo-19" style="edgeStyle=orthogonalEdgeStyle;rounded=0;orthogonalLoop=1;jettySize=auto;html=1;entryX=0.5;entryY=1;entryDx=0;entryDy=0;" edge="1" parent="1" source="QEWqBoXuelxvLnv4VFpo-24" target="QEWqBoXuelxvLnv4VFpo-18">
          <mxGeometry relative="1" as="geometry" />
        </mxCell>
        <mxCell id="QEWqBoXuelxvLnv4VFpo-20" value="&lt;div&gt;Store/Retrieve Data&lt;/div&gt;" style="edgeLabel;html=1;align=center;verticalAlign=middle;resizable=0;points=[];" vertex="1" connectable="0" parent="QEWqBoXuelxvLnv4VFpo-19">
          <mxGeometry x="-0.1333" y="-4" relative="1" as="geometry">
            <mxPoint as="offset" />
          </mxGeometry>
        </mxCell>
        <mxCell id="QEWqBoXuelxvLnv4VFpo-21" style="edgeStyle=orthogonalEdgeStyle;rounded=0;orthogonalLoop=1;jettySize=auto;html=1;entryX=1;entryY=0;entryDx=0;entryDy=0;exitX=0;exitY=0;exitDx=0;exitDy=0;" edge="1" parent="1" source="QEWqBoXuelxvLnv4VFpo-24" target="QEWqBoXuelxvLnv4VFpo-27">
          <mxGeometry relative="1" as="geometry" />
        </mxCell>
        <mxCell id="QEWqBoXuelxvLnv4VFpo-22" value="&lt;div&gt;Get Generated Report&lt;/div&gt;" style="edgeLabel;html=1;align=center;verticalAlign=middle;resizable=0;points=[];" vertex="1" connectable="0" parent="QEWqBoXuelxvLnv4VFpo-21">
          <mxGeometry x="-0.1394" y="-1" relative="1" as="geometry">
            <mxPoint as="offset" />
          </mxGeometry>
        </mxCell>
        <mxCell id="QEWqBoXuelxvLnv4VFpo-23" style="edgeStyle=orthogonalEdgeStyle;rounded=0;orthogonalLoop=1;jettySize=auto;html=1;" edge="1" parent="1" source="QEWqBoXuelxvLnv4VFpo-24">
          <mxGeometry relative="1" as="geometry">
            <mxPoint x="405" y="-620" as="targetPoint" />
          </mxGeometry>
        </mxCell>
        <mxCell id="QEWqBoXuelxvLnv4VFpo-24" value="FastAPI&lt;br&gt;&lt;div&gt;Web-App&lt;/div&gt;" style="shape=ellipse;html=1;dashed=0;whiteSpace=wrap;perimeter=ellipsePerimeter;" vertex="1" parent="1">
          <mxGeometry x="365" y="-790" width="80" height="82" as="geometry" />
        </mxCell>
        <mxCell id="QEWqBoXuelxvLnv4VFpo-25" style="edgeStyle=orthogonalEdgeStyle;rounded=0;orthogonalLoop=1;jettySize=auto;html=1;entryX=0;entryY=1;entryDx=0;entryDy=0;exitX=1;exitY=1;exitDx=0;exitDy=0;" edge="1" parent="1" source="QEWqBoXuelxvLnv4VFpo-27" target="QEWqBoXuelxvLnv4VFpo-24">
          <mxGeometry relative="1" as="geometry">
            <mxPoint x="170" y="-640" as="sourcePoint" />
          </mxGeometry>
        </mxCell>
        <mxCell id="QEWqBoXuelxvLnv4VFpo-26" value="Submit Carbon Emission form" style="edgeLabel;html=1;align=center;verticalAlign=middle;resizable=0;points=[];" vertex="1" connectable="0" parent="QEWqBoXuelxvLnv4VFpo-25">
          <mxGeometry x="0.2303" y="-5" relative="1" as="geometry">
            <mxPoint as="offset" />
          </mxGeometry>
        </mxCell>
        <mxCell id="QEWqBoXuelxvLnv4VFpo-27" value="&lt;div&gt;User/Client&lt;/div&gt;" style="html=1;dashed=0;whiteSpace=wrap;" vertex="1" parent="1">
          <mxGeometry x="50" y="-765" width="100" height="32" as="geometry" />
        </mxCell>
        <mxCell id="QEWqBoXuelxvLnv4VFpo-28" value="&lt;div&gt;View Other Company&#39;s Data&lt;/div&gt;" style="edgeStyle=orthogonalEdgeStyle;rounded=0;orthogonalLoop=1;jettySize=auto;html=1;entryX=0.5;entryY=1;entryDx=0;entryDy=0;" edge="1" parent="1" source="QEWqBoXuelxvLnv4VFpo-29" target="QEWqBoXuelxvLnv4VFpo-24">
          <mxGeometry relative="1" as="geometry" />
        </mxCell>
        <mxCell id="QEWqBoXuelxvLnv4VFpo-29" value="&lt;div&gt;Admin/Company &lt;br&gt;&lt;/div&gt;" style="html=1;dashed=0;whiteSpace=wrap;" vertex="1" parent="1">
          <mxGeometry x="355" y="-620" width="100" height="50" as="geometry" />
        </mxCell>
        <mxCell id="QEWqBoXuelxvLnv4VFpo-30" value="&lt;div&gt;Carbon Footprint Report Generator Web-App&lt;br&gt;&lt;/div&gt;" style="text;strokeColor=none;fillColor=none;html=1;fontSize=24;fontStyle=1;verticalAlign=middle;align=center;" vertex="1" parent="1">
          <mxGeometry y="-1080" width="790" height="40" as="geometry" />
        </mxCell>
        <mxCell id="QEWqBoXuelxvLnv4VFpo-31" value="&lt;div&gt;Data Flow&lt;/div&gt;" style="text;strokeColor=none;fillColor=none;html=1;fontSize=24;fontStyle=1;verticalAlign=middle;align=center;" vertex="1" parent="1">
          <mxGeometry x="345" y="-1020" width="100" height="40" as="geometry" />
        </mxCell>
      </root>
    </mxGraphModel>
  </diagram>
</mxfile>
